<svg id="图层_1" data-name="图层 1" xmlns="http://www.w3.org/2000/svg" xmlns:xlink="http://www.w3.org/1999/xlink" viewBox="0 0 2002.66667 1519"><defs><style>.cls-1{fill:url(#未命名的渐变_6);}.cls-2{fill:url(#未命名的渐变_6-2);}.cls-3{fill:url(#未命名的渐变_6-3);}.cls-4{fill:url(#未命名的渐变_6-4);}.cls-5{fill:url(#未命名的渐变_6-5);}.cls-6{fill:url(#未命名的渐变_6-6);}.cls-7{fill:url(#未命名的渐变_6-7);}.cls-8{fill:url(#未命名的渐变_6-8);}.cls-9{fill:url(#未命名的渐变_6-9);}.cls-10{fill:url(#未命名的渐变_6-10);}.cls-11{fill:url(#未命名的渐变_6-11);}.cls-12{fill:url(#未命名的渐变_6-12);}.cls-13{font-size:193px;fill:#027dcb;font-family:HGB7X_CNKI;}</style><linearGradient id="未命名的渐变_6" x1="790.25891" y1="1030.14238" x2="790.25891" y2="600.91943" gradientUnits="userSpaceOnUse"><stop offset="0" stop-color="#0079cd"/><stop offset="1" stop-color="#19c6b3"/></linearGradient><linearGradient id="未命名的渐变_6-2" x1="759.87076" y1="882.30365" x2="759.87076" y2="945.67721" xlink:href="#未命名的渐变_6"/><linearGradient id="未命名的渐变_6-3" x1="806.98886" y1="882.30365" x2="806.98886" y2="945.67721" xlink:href="#未命名的渐变_6"/><linearGradient id="未命名的渐变_6-4" x1="854.10696" y1="882.30365" x2="854.10696" y2="945.67721" xlink:href="#未命名的渐变_6"/><linearGradient id="未命名的渐变_6-5" x1="1132.7661" y1="882.30365" x2="1132.7661" y2="945.67721" xlink:href="#未命名的渐变_6"/><linearGradient id="未命名的渐变_6-6" x1="1179.88201" y1="882.30365" x2="1179.88201" y2="945.67721" xlink:href="#未命名的渐变_6"/><linearGradient id="未命名的渐变_6-7" x1="1227.00011" y1="882.30365" x2="1227.00011" y2="945.67721" xlink:href="#未命名的渐变_6"/><linearGradient id="未命名的渐变_6-8" x1="1510.1421" y1="882.30365" x2="1510.1421" y2="945.67721" xlink:href="#未命名的渐变_6"/><linearGradient id="未命名的渐变_6-9" x1="1557.2602" y1="882.30365" x2="1557.2602" y2="945.67721" xlink:href="#未命名的渐变_6"/><linearGradient id="未命名的渐变_6-10" x1="1604.3783" y1="882.30365" x2="1604.3783" y2="945.67721" xlink:href="#未命名的渐变_6"/><linearGradient id="未命名的渐变_6-11" x1="1155.21675" y1="832.04782" x2="1155.21675" y2="977.35213" xlink:href="#未命名的渐变_6"/><linearGradient id="未命名的渐变_6-12" x1="1477.5666" y1="1029.69894" x2="1477.5666" y2="601.6254" xlink:href="#未命名的渐变_6"/></defs><path class="cls-1" d="M1309.70059,896.133c-66.14116-30.70664-132.78624-43.59851-210.1901-22.67515-69.78718,18.73787-129.19888,61.54321-194.51442,91.90495-33.74754,15.60417-71.9646,27.561-110.10359,25.54348a185.31043,185.31043,0,0,1-106.30806-40.61722c-38.60892-31.63029-61.4293-79.82771-67.013-128.91922-.16774-1.68354-.309-3.16654-.41136-5.17679l10.6632,10.25387-80.73019.05336,10.72448-10.72476.13079,198.73748a10.84905,10.84905,0,0,1-10.85582,10.85609l-58.18842.0383a10.88774,10.88774,0,0,1-10.89466-10.89439l-.07607-115.48788,10.97019,10.96991-52.42234.03475a10.99778,10.99778,0,0,1-11.00465-10.9907c-.00368-.01288-.08763-136.88652-.0903-136.90075l11.09495,11.095-47.17993.03092a11.11935,11.11935,0,0,1-11.12669-11.11164c0-.01341-.116-176.26156-.116-176.27619l11.24215,11.24218-62.90658.04146,11.28374-11.28361.19974,303.24588a11.4765,11.4765,0,0,1-11.4687,11.48375c-.01418,0-65.00345.04268-65.0189.04268l0-23.05286h0l65.00354.043-11.48293,11.48348c-.00287-.01466.20183-303.24713.19973-303.26061a11.27607,11.27607,0,0,1,11.28375-11.26914l62.90658.04145a11.23567,11.23567,0,0,1,11.2427,11.24242l-.11656,176.26166L393.30132,751.012l47.17993.03119a11.08787,11.08787,0,0,1,11.09495,11.09523l-.09029,136.88622L440.48125,888.02c.00656.00088,52.429.03413,52.43651.03475a10.9634,10.9634,0,0,1,10.95655,10.97045l-.07606,115.48788-10.89412-10.89411,58.18842.03857L540.23674,1014.513l.13134-198.73748a10.71806,10.71806,0,0,1,10.725-10.725l80.73019.05308A10.69471,10.69471,0,0,1,642.487,815.358a143.21494,143.21494,0,0,0,2.02366,16.51711,191.27608,191.27608,0,0,0,15.66425,48.99259c28.64241,63.04907,101.89393,99.19331,169.56026,86.3134C900.2697,953.15394,958.15226,905.43676,1022.459,874.7c95.04555-49.22369,194.44168-54.7738,292.66876-10.15143Z"/><path class="cls-2" d="M759.87076,943.7352a5.60314,5.60314,0,0,1-5.60357-5.60357V895.02139a5.60356,5.60356,0,0,1,11.20713,0v43.11024A5.60314,5.60314,0,0,1,759.87076,943.7352Z"/><path class="cls-3" d="M806.98886,951.62068a5.60314,5.60314,0,0,1-5.60357-5.60356V887.13591a5.60356,5.60356,0,1,1,11.20713,0v58.88121A5.60314,5.60314,0,0,1,806.98886,951.62068Z"/><path class="cls-4" d="M854.107,943.7352a5.60314,5.60314,0,0,1-5.60357-5.60357V895.02139a5.60357,5.60357,0,0,1,11.20713,0v43.11024A5.60314,5.60314,0,0,1,854.107,943.7352Z"/><path class="cls-5" d="M1132.7661,943.7352a5.60314,5.60314,0,0,1-5.60357-5.60357V895.02139a5.60356,5.60356,0,0,1,11.20713,0v43.11024A5.60314,5.60314,0,0,1,1132.7661,943.7352Z"/><path class="cls-6" d="M1179.882,951.62068a5.60314,5.60314,0,0,1-5.60357-5.60356V887.13591a5.60356,5.60356,0,1,1,11.20713,0v58.88121A5.60314,5.60314,0,0,1,1179.882,951.62068Z"/><path class="cls-7" d="M1227.00011,943.7352a5.60314,5.60314,0,0,1-5.60357-5.60357V895.02139a5.60356,5.60356,0,0,1,11.20713,0v43.11024A5.60314,5.60314,0,0,1,1227.00011,943.7352Z"/><path class="cls-8" d="M1510.1421,943.7352a5.60314,5.60314,0,0,1-5.60356-5.60357V895.02139a5.60357,5.60357,0,0,1,11.20713,0v43.11024A5.60314,5.60314,0,0,1,1510.1421,943.7352Z"/><path class="cls-9" d="M1557.2602,951.62068a5.60314,5.60314,0,0,1-5.60356-5.60356V887.13591a5.60356,5.60356,0,1,1,11.20712,0v58.88121A5.60314,5.60314,0,0,1,1557.2602,951.62068Z"/><path class="cls-10" d="M1604.3783,943.7352a5.60315,5.60315,0,0,1-5.60357-5.60357V895.02139a5.60356,5.60356,0,0,1,11.20713,0v43.11024A5.60314,5.60314,0,0,1,1604.3783,943.7352Z"/><path class="cls-11" d="M1511.94684,842.115c-43.31325,12.31006-84.41409,30.43956-123.71839,50.23508-58.311,28.7024-112.27924,63.92579-175.56778,76.0238-62.12952,10.50942-126.078-4.31212-181.67533-32.951-57.755-28.376-110.24521-75.07464-175.0813-91.64182-66.92977-18.06383-135.63965,10.05824-190.90316,46.63709a142.908,142.908,0,0,0,10.221,15.95648c42.39556-30.465,92.3045-55.39348,145.67408-52.58376,65.92287,3.30523,118.945,47.80158,173.5923,80.28584,28.18527,17.42769,57.61657,32.87662,89.2997,43.36688,42.37914,13.8442,88.35136,19.96927,132.66549,12.98889,66.13136-10.71627,124.15507-46.0439,183.7816-73.75172,71.09375-34.74936,148.53883-58.10909,227.84736-58.38553a17.47357,17.47357,0,0,0,17.35018-17.51027v0a17.56114,17.56114,0,0,0-18.43647-17.50868A502.62746,502.62746,0,0,0,1511.94684,842.115Z"/><path class="cls-12" d="M1315.12774,864.54859c66.14708,29.56546,125.20493,72.15228,193.88735,94.56968a406.73652,406.73652,0,0,0,119.44957,20.72451,17.47941,17.47941,0,0,1,16.968,17.50276v.5522a17.5601,17.5601,0,0,1-18.32473,17.515,461.67237,461.67237,0,0,1-56.39093-5.69311c-74.002-11.15685-141.62072-46.60058-205.15575-83.8386-18.73208-11.08582-37.27646-21.12013-55.86062-29.748Z"/><text/><text class="cls-13" transform="translate(443.6751 734.67377)">NanoBaseLib</text></svg>