<svg id="图层_1" data-name="图层 1" xmlns="http://www.w3.org/2000/svg" xmlns:xlink="http://www.w3.org/1999/xlink" viewBox="0 0 1800 1100"><defs><style>.cls-1{fill:url(#未命名的渐变_6);}.cls-2{fill:url(#未命名的渐变_6-2);}.cls-3{fill:url(#未命名的渐变_6-3);}.cls-4{fill:url(#未命名的渐变_6-4);}.cls-5{fill:url(#未命名的渐变_6-5);}.cls-6{fill:url(#未命名的渐变_6-6);}.cls-7{fill:url(#未命名的渐变_6-7);}.cls-8{fill:url(#未命名的渐变_6-8);}.cls-9{fill:url(#未命名的渐变_6-9);}.cls-10{fill:url(#未命名的渐变_6-10);}.cls-11{fill:url(#未命名的渐变_6-11);}.cls-12{fill:url(#未命名的渐变_6-12);}.cls-13{font-size:188px;fill:#027dcb;font-family:HGB7X_CNKI;}</style><linearGradient id="未命名的渐变_6" x1="734.84756" y1="780.14238" x2="734.84756" y2="350.91943" gradientUnits="userSpaceOnUse"><stop offset="0" stop-color="#0079cd"/><stop offset="1" stop-color="#19c6b3"/></linearGradient><linearGradient id="未命名的渐变_6-2" x1="704.45941" y1="632.30365" x2="704.45941" y2="695.67721" xlink:href="#未命名的渐变_6"/><linearGradient id="未命名的渐变_6-3" x1="751.57751" y1="632.30365" x2="751.57751" y2="695.67721" xlink:href="#未命名的渐变_6"/><linearGradient id="未命名的渐变_6-4" x1="798.69561" y1="632.30365" x2="798.69561" y2="695.67721" xlink:href="#未命名的渐变_6"/><linearGradient id="未命名的渐变_6-5" x1="1077.35475" y1="632.30365" x2="1077.35475" y2="695.67721" xlink:href="#未命名的渐变_6"/><linearGradient id="未命名的渐变_6-6" x1="1124.47066" y1="632.30365" x2="1124.47066" y2="695.67721" xlink:href="#未命名的渐变_6"/><linearGradient id="未命名的渐变_6-7" x1="1171.58876" y1="632.30365" x2="1171.58876" y2="695.67721" xlink:href="#未命名的渐变_6"/><linearGradient id="未命名的渐变_6-8" x1="1454.73075" y1="632.30365" x2="1454.73075" y2="695.67721" xlink:href="#未命名的渐变_6"/><linearGradient id="未命名的渐变_6-9" x1="1501.84885" y1="632.30365" x2="1501.84885" y2="695.67721" xlink:href="#未命名的渐变_6"/><linearGradient id="未命名的渐变_6-10" x1="1548.96695" y1="632.30365" x2="1548.96695" y2="695.67721" xlink:href="#未命名的渐变_6"/><linearGradient id="未命名的渐变_6-11" x1="1099.8054" y1="582.04782" x2="1099.8054" y2="727.35213" xlink:href="#未命名的渐变_6"/><linearGradient id="未命名的渐变_6-12" x1="1422.15526" y1="779.69894" x2="1422.15526" y2="351.6254" xlink:href="#未命名的渐变_6"/></defs><path class="cls-1" d="M1254.28924,646.133c-66.14116-30.70664-132.78624-43.59851-210.1901-22.67515-69.78718,18.73787-129.19887,61.54321-194.51442,91.90495-33.74754,15.60417-71.9646,27.561-110.10359,25.54348a185.31038,185.31038,0,0,1-106.308-40.61722c-38.60893-31.63029-61.4293-79.82771-67.013-128.91922-.16775-1.68354-.309-3.16654-.41136-5.17679L576.41194,576.447l-80.73019.05336,10.72448-10.72476L506.537,764.513a10.849,10.849,0,0,1-10.85581,10.85609l-58.18843.0383A10.88775,10.88775,0,0,1,426.59812,764.513l-.07606-115.48788,10.97018,10.96991-52.42234.03475a10.99779,10.99779,0,0,1-11.00465-10.9907c-.00368-.01288-.08763-136.88652-.0903-136.90075l11.095,11.095-47.17993.03092a11.11935,11.11935,0,0,1-11.12669-11.11164c0-.01341-.116-176.26156-.116-176.27619l11.24215,11.24218-62.90658.04146,11.28374-11.28361.19974,303.24588a11.47649,11.47649,0,0,1-11.4687,11.48375c-.01418,0-65.00344.04268-65.0189.04268l0-23.05286h0l65.00354.043-11.48293,11.48348c-.00288-.01466.20183-303.24713.19973-303.26061a11.27606,11.27606,0,0,1,11.28374-11.26914l62.90658.04145a11.23567,11.23567,0,0,1,11.2427,11.24242l-.11656,176.26166L337.89,501.012l47.17993.03119a11.08787,11.08787,0,0,1,11.09495,11.09523l-.09029,136.88622L385.0699,638.02c.00656.00088,52.429.03413,52.43651.03475A10.96341,10.96341,0,0,1,448.463,649.02515L448.3869,764.513l-10.89412-10.89411,58.18843.03857L484.8254,764.513l.13133-198.73748a10.71806,10.71806,0,0,1,10.725-10.725l80.73018.05308A10.69471,10.69471,0,0,1,587.07565,565.358a143.21714,143.21714,0,0,0,2.02366,16.51711,191.27608,191.27608,0,0,0,15.66425,48.99259c28.64241,63.04907,101.89393,99.19331,169.56026,86.3134,70.53453-14.0272,128.41709-61.74438,192.72381-92.48112,95.04556-49.22369,194.44168-54.7738,292.66876-10.15143Z"/><path class="cls-2" d="M704.45941,693.7352a5.60314,5.60314,0,0,1-5.60356-5.60357V645.02139a5.60356,5.60356,0,0,1,11.20713,0v43.11024A5.60315,5.60315,0,0,1,704.45941,693.7352Z"/><path class="cls-3" d="M751.57751,701.62068a5.60314,5.60314,0,0,1-5.60356-5.60356V637.13591a5.60356,5.60356,0,1,1,11.20712,0v58.88121A5.60314,5.60314,0,0,1,751.57751,701.62068Z"/><path class="cls-4" d="M798.69561,693.7352a5.60314,5.60314,0,0,1-5.60357-5.60357V645.02139a5.60356,5.60356,0,0,1,11.20713,0v43.11024A5.60314,5.60314,0,0,1,798.69561,693.7352Z"/><path class="cls-5" d="M1077.35475,693.7352a5.60314,5.60314,0,0,1-5.60356-5.60357V645.02139a5.60356,5.60356,0,0,1,11.20713,0v43.11024A5.60315,5.60315,0,0,1,1077.35475,693.7352Z"/><path class="cls-6" d="M1124.47066,701.62068a5.60314,5.60314,0,0,1-5.60356-5.60356V637.13591a5.60357,5.60357,0,1,1,11.20713,0v58.88121A5.60315,5.60315,0,0,1,1124.47066,701.62068Z"/><path class="cls-7" d="M1171.58876,693.7352a5.60314,5.60314,0,0,1-5.60356-5.60357V645.02139a5.60356,5.60356,0,1,1,11.20712,0v43.11024A5.60314,5.60314,0,0,1,1171.58876,693.7352Z"/><path class="cls-8" d="M1454.73075,693.7352a5.60314,5.60314,0,0,1-5.60356-5.60357V645.02139a5.60357,5.60357,0,0,1,11.20713,0v43.11024A5.60314,5.60314,0,0,1,1454.73075,693.7352Z"/><path class="cls-9" d="M1501.84885,701.62068a5.60314,5.60314,0,0,1-5.60356-5.60356V637.13591a5.60357,5.60357,0,1,1,11.20713,0v58.88121A5.60314,5.60314,0,0,1,1501.84885,701.62068Z"/><path class="cls-10" d="M1548.967,693.7352a5.60314,5.60314,0,0,1-5.60356-5.60357V645.02139a5.60357,5.60357,0,0,1,11.20713,0v43.11024A5.60314,5.60314,0,0,1,1548.967,693.7352Z"/><path class="cls-11" d="M1456.5355,592.115c-43.31326,12.31006-84.41409,30.43956-123.71839,50.23508-58.311,28.7024-112.27924,63.92579-175.56778,76.0238-62.12953,10.50942-126.078-4.31212-181.67534-32.951-57.755-28.376-110.24521-75.07464-175.0813-91.64182C733.56292,575.71723,664.853,603.8393,609.58953,640.41815a142.908,142.908,0,0,0,10.221,15.95648c42.39557-30.465,92.3045-55.39348,145.67408-52.58376,65.92287,3.30523,118.945,47.80158,173.5923,80.28584,28.18528,17.42769,57.61658,32.87662,89.2997,43.36688,42.37915,13.8442,88.35136,19.96927,132.66549,12.98889,66.13136-10.71627,124.15507-46.0439,183.7816-73.75172,71.09375-34.74936,148.53883-58.10909,227.84736-58.38553a17.47357,17.47357,0,0,0,17.35018-17.51027v0a17.56114,17.56114,0,0,0-18.43647-17.50868A502.62729,502.62729,0,0,0,1456.5355,592.115Z"/><path class="cls-12" d="M1259.71639,614.54859c66.14708,29.56546,125.20493,72.15228,193.88735,94.56968a406.73659,406.73659,0,0,0,119.44958,20.72451,17.47942,17.47942,0,0,1,16.968,17.50276v.5522a17.56012,17.56012,0,0,1-18.32474,17.515,461.672,461.672,0,0,1-56.39092-5.69311c-74.002-11.15685-141.62073-46.60058-205.15576-83.8386-18.73208-11.08582-37.27646-21.12013-55.86062-29.748Z"/><text/><text class="cls-13" transform="translate(380.12202 478.95006)">NanoBaseLib</text></svg>